<svg width="48" height="47" viewBox="0 0 48 47" fill="none" xmlns="http://www.w3.org/2000/svg">
<circle cx="23.7705" cy="23.5" r="23" stroke="#FF4747"/>
<g clip-path="url(#clip0)">
<path d="M18.2807 11.3087H28.6565C32.5971 11.3087 35.8039 14.5154 35.8039 18.4561V28.8319C35.8039 32.7725 32.5972 35.9793 28.6565 35.9793H18.2807C14.3401 35.9793 11.1333 32.7725 11.1333 28.8319V18.4561C11.1333 14.5154 14.3401 11.3087 18.2807 11.3087ZM28.6565 34.3968C31.7299 34.3968 34.2214 31.9053 34.2214 28.8319V18.4561C34.2214 15.3826 31.7299 12.8911 28.6565 12.8911H18.2807C15.2073 12.8911 12.7158 15.3826 12.7158 18.4561V28.8319C12.7158 31.9053 15.2073 34.3968 18.2807 34.3968H28.6565Z" fill="#FF4747" stroke="#FF4747"/>
<path d="M17.3291 23.6439C17.3291 20.2592 20.0836 17.5046 23.4684 17.5046C26.8532 17.5046 29.6078 20.2591 29.6078 23.6439C29.6078 27.0287 26.8532 29.7833 23.4684 29.7833C20.0836 29.7833 17.3291 27.0287 17.3291 23.6439ZM18.9116 23.644C18.9116 26.1607 20.9517 28.2008 23.4684 28.2008C25.9851 28.2008 28.0253 26.1606 28.0253 23.644C28.0253 21.1273 25.9851 19.0871 23.4684 19.0871C20.9518 19.0871 18.9116 21.1273 18.9116 23.644Z" fill="#FF4747" stroke="#FF4747"/>
<path d="M31.2116 17.0545C31.2116 17.657 30.7232 18.1454 30.1207 18.1454C29.5182 18.1454 29.0298 17.657 29.0298 17.0545C29.0298 16.452 29.5182 15.9636 30.1207 15.9636C30.7232 15.9636 31.2116 16.452 31.2116 17.0545Z" fill="#FF4747" stroke="#FF4747"/>
</g>
<defs>
<clipPath id="clip0">
<rect width="25.6706" height="25.6706" fill="white" transform="translate(10.6333 10.8087)"/>
</clipPath>
</defs>
</svg>
