<svg width="20" height="20" viewBox="0 0 20 20" fill="none" xmlns="http://www.w3.org/2000/svg">
<path d="M19.9904 15.7799C20.0328 16.1046 19.9339 16.3869 19.694 16.6268L16.8781 19.4215C16.751 19.5627 16.5852 19.6827 16.3806 19.7814C16.1759 19.8803 15.9748 19.9438 15.7772 19.972C15.7631 19.972 15.7207 19.9756 15.6501 19.9827C15.5796 19.9897 15.4879 19.9933 15.3749 19.9933C15.1067 19.9933 14.6726 19.9474 14.0727 19.8556C13.4728 19.7639 12.7389 19.538 11.8709 19.1781C11.0027 18.8182 10.0182 18.2782 8.91722 17.5584C7.81628 16.8387 6.6447 15.8505 5.40257 14.5943C4.41452 13.6203 3.59585 12.6887 2.94655 11.7995C2.29726 10.9102 1.775 10.088 1.37978 9.33287C0.984525 8.57772 0.688109 7.89314 0.490498 7.27913C0.292887 6.66513 0.158794 6.13581 0.0882191 5.69119C0.0176438 5.24656 -0.0105863 4.89722 0.00352876 4.64314C0.0176438 4.38907 0.0247013 4.24792 0.0247013 4.21969C0.0529315 4.02208 0.116449 3.82094 0.215255 3.61627C0.31406 3.41161 0.434038 3.24575 0.575189 3.11872L3.39114 0.302764C3.58875 0.105153 3.81459 0.00634766 4.06867 0.00634766C4.25216 0.00634766 4.41448 0.0592791 4.55563 0.165142C4.69679 0.271005 4.81676 0.401569 4.91557 0.556835L7.18104 4.85487C7.30807 5.08071 7.34336 5.32772 7.2869 5.59591C7.23044 5.8641 7.11046 6.08994 6.92696 6.27343L5.88951 7.31089C5.86128 7.33912 5.83658 7.38499 5.8154 7.44851C5.79423 7.51203 5.78364 7.56496 5.78364 7.60731C5.8401 7.90372 5.96714 8.24248 6.16475 8.62359C6.33413 8.96235 6.59526 9.37522 6.94814 9.86219C7.30101 10.3492 7.8021 10.9102 8.45139 11.5454C9.08657 12.1947 9.65117 12.6993 10.1452 13.0593C10.6391 13.4191 11.0521 13.6838 11.3838 13.8532C11.7155 14.0226 11.9696 14.1249 12.146 14.1601L12.4106 14.2131C12.4388 14.2131 12.4848 14.2025 12.5483 14.1813C12.6118 14.1601 12.6576 14.1355 12.6859 14.1072L13.8927 12.8792C14.1469 12.6534 14.4432 12.5405 14.782 12.5405C15.022 12.5405 15.2125 12.5828 15.3536 12.6675H15.3748L19.461 15.0812C19.7576 15.2648 19.934 15.4976 19.9904 15.7799Z" fill="#727272"/>
</svg>
