<svg width="47" height="47" viewBox="0 0 47 47" fill="none" xmlns="http://www.w3.org/2000/svg">
<circle cx="23.5" cy="23.5" r="23" stroke="#FF4747"/>
<path fill-rule="evenodd" clip-rule="evenodd" d="M21.5412 31.1783H23.0865C23.0865 31.1783 23.5533 31.1271 23.7916 30.8703C24.011 30.6345 24.004 30.1917 24.004 30.1917C24.004 30.1917 23.9738 28.1187 24.9362 27.8135C25.8849 27.5128 27.1031 29.8169 28.3944 30.7029C29.3708 31.3734 30.1127 31.2264 30.1127 31.2264L33.5653 31.1783C33.5653 31.1783 35.3714 31.0671 34.5151 29.6475C34.4449 29.5313 34.0163 28.5973 31.948 26.6781C29.7832 24.6694 30.0731 24.9943 32.6808 21.5196C34.269 19.4035 34.9039 18.1116 34.7056 17.5583C34.5165 17.0313 33.3484 17.1706 33.3484 17.1706L29.461 17.1948C29.461 17.1948 29.1728 17.1555 28.9591 17.2832C28.7502 17.4085 28.6158 17.7004 28.6158 17.7004C28.6158 17.7004 28.0006 19.3379 27.18 20.7305C25.4489 23.669 24.7568 23.8241 24.4739 23.6417C23.8158 23.2164 23.9801 21.9333 23.9801 21.0217C23.9801 18.1741 24.4122 16.9868 23.1388 16.6794C22.7162 16.5773 22.4053 16.5099 21.3246 16.499C19.9375 16.4847 18.7635 16.5033 18.0988 16.8289C17.6565 17.0453 17.3154 17.5278 17.5232 17.5555C17.7801 17.5899 18.362 17.7123 18.6705 18.1323C19.0689 18.6741 19.0548 19.8909 19.0548 19.8909C19.0548 19.8909 19.2837 23.2431 18.5203 23.6596C17.9963 23.9452 17.2775 23.362 15.7342 20.6961C14.9435 19.3306 14.3465 17.8211 14.3465 17.8211C14.3465 17.8211 14.2313 17.539 14.026 17.3881C13.7768 17.2053 13.4286 17.1471 13.4286 17.1471L9.7346 17.1713C9.7346 17.1713 9.18006 17.1867 8.97649 17.4278C8.79538 17.6422 8.9621 18.0857 8.9621 18.0857C8.9621 18.0857 11.8542 24.8497 15.1288 28.2584C18.1314 31.3836 21.5412 31.1783 21.5412 31.1783Z" fill="#FF4747"/>
</svg>
