<svg width="48" height="48" viewBox="0 0 48 48" fill="none" xmlns="http://www.w3.org/2000/svg">
<path d="M47.3647 24.48C47.3647 37.1783 37.0674 47.4726 24.3647 47.4726C11.662 47.4726 1.36475 37.1783 1.36475 24.48C1.36475 11.7817 11.662 1.4874 24.3647 1.4874C37.0674 1.4874 47.3647 11.7817 47.3647 24.48Z" stroke="#FF4747"/>
<path d="M32.2271 14.9667H16.5025C13.4174 14.9667 10.9165 17.4669 10.9165 20.551V28.4092C10.9165 31.4934 13.4175 33.9935 16.5025 33.9935H32.2271C35.3123 33.9935 37.8132 31.4933 37.8132 28.4092V20.551C37.8132 17.4669 35.3122 14.9667 32.2271 14.9667ZM28.4492 24.8624L21.0945 28.3691C20.8984 28.4626 20.6719 28.3199 20.6719 28.1028V20.8702C20.6719 20.65 20.9044 20.5073 21.1006 20.6069L28.4554 24.3327C28.6744 24.4435 28.6705 24.7571 28.4492 24.8624Z" fill="#FF4747"/>
<path d="M32.2271 14.9667H24.2065V22.1801L28.4555 24.3325C28.6744 24.4434 28.6704 24.7569 28.4492 24.8623L24.2065 26.8853V33.9935H32.2271C35.3122 33.9935 37.8131 31.4933 37.8131 28.4092V20.551C37.8131 17.4669 35.3121 14.9667 32.2271 14.9667Z" fill="#E14141"/>
</svg>
