<svg width="55" height="61" viewBox="0 0 55 61" fill="none" xmlns="http://www.w3.org/2000/svg">
<path d="M23.5717 16.7258H21.6074V18.6936H23.5717V16.7258Z" fill="#FF4747"/>
<path d="M33.3929 16.7258H31.4287V18.6936H33.3929V16.7258Z" fill="#FF4747"/>
<path d="M31.4282 21.6451H29.464C29.464 22.7304 28.583 23.6129 27.4997 23.6129C26.4165 23.6129 25.5355 22.7304 25.5355 21.6451H23.5713C23.5713 23.8156 25.3332 25.5806 27.4997 25.5806C29.6663 25.5806 31.4282 23.8156 31.4282 21.6451Z" fill="#FF4747"/>
<path d="M52.6726 53.4035L36.8723 46.2085L42.4144 43.6268C44.9531 45.5345 48.5054 45.7933 51.278 44.2102C53.8128 42.764 55.1956 40.0219 54.9776 36.8745L54.8695 35.3131L49.1419 38.5825L47.1246 35.1262L52.8611 31.8509L51.5313 30.9673C48.8924 29.2151 45.8076 29.0301 43.2826 30.4725C42.6972 30.807 42.1669 31.2172 41.6935 31.6816C41.2152 31.2064 40.6868 30.7834 40.0995 30.4301C39.1302 29.8477 38.0705 29.4709 36.9519 29.3105L32.4106 28.6631V28.429C36.4608 26.5586 39.2854 22.4628 39.2854 17.7097V14.7581H44.1959C45.8204 14.7581 47.1423 13.4338 47.1423 11.8065C47.1423 10.1791 45.8204 8.85484 44.1959 8.85484H39.2353C38.7413 3.89023 34.5486 0 29.4642 0H25.5358C20.1204 0 15.7146 4.41365 15.7146 9.83871V17.7097C15.7146 22.4628 18.5392 26.5586 22.5894 28.429V28.6631L18.0481 29.3135C16.9295 29.4738 15.8698 29.8497 14.9004 30.4331C14.3131 30.7863 13.7848 31.2094 13.3065 31.6846C12.8331 31.2202 12.3037 30.8089 11.7174 30.4754C9.18946 29.033 6.1066 29.217 3.46864 30.9703L2.13886 31.8538L7.87539 35.1291L5.85812 38.5854L0.130434 35.316L0.0224019 36.8774C-0.195627 40.0239 1.18817 42.7659 3.72203 44.2132C6.49453 45.7953 10.0468 45.5375 12.5856 43.6288L18.1277 46.2114L2.32742 53.4035C0.914162 54.048 0.000795352 55.4677 0.000795352 57.0232C0.000795352 59.2162 1.78137 61 3.9705 61H4.25139C4.83378 61 5.39751 60.875 5.92589 60.6291L27.5 50.5759L49.0751 60.6291C49.6035 60.875 50.1672 61 50.7496 61H51.0305C53.2186 61 54.9992 59.2162 54.9992 57.0232C54.9992 55.4677 54.0858 54.048 52.6726 53.4035ZM39.2854 10.8226H44.1959C44.7371 10.8226 45.178 11.2643 45.178 11.8065C45.178 12.3486 44.7371 12.7903 44.1959 12.7903H39.2854V10.8226ZM41.2604 37.2277C41.3115 35.1409 42.4596 33.2076 44.2549 32.1834C45.6642 31.3796 47.3259 31.2714 48.9179 31.8381L44.4258 34.402L48.4279 41.2557L52.9328 38.6838C52.6362 40.3289 51.714 41.6964 50.3057 42.5003C48.0655 43.7793 45.1466 43.4674 43.2109 41.7397L42.7287 41.3088L34.5162 45.1351L29.8728 43.0207L41.2447 37.8436L41.2604 37.2277ZM33.3927 30.7912V33.8275L30.1399 32.1982L31.7751 30.56L33.3927 30.7912ZM27.5 32.0604L24.5792 29.1344C25.5151 29.3745 26.4904 29.5161 27.5 29.5161C28.5096 29.5161 29.4848 29.3745 30.4208 29.1344L27.5 32.0604ZM17.6789 17.7097V14.7581H33.3927V12.7903H32.4106V11.8065C32.4106 10.1791 31.0886 8.85484 29.4642 8.85484H25.5358C23.9113 8.85484 22.5894 10.1791 22.5894 11.8065V12.7903H17.6789V9.83871C17.6789 5.49886 21.2037 1.96774 25.5358 1.96774H29.4642C33.7963 1.96774 37.3211 5.49886 37.3211 9.83871V12.7903H35.3569V14.7581H37.3211V17.7097C37.3211 23.1347 32.9154 27.5484 27.5 27.5484C22.0846 27.5484 17.6789 23.1347 17.6789 17.7097ZM24.5537 12.7903V11.8065C24.5537 11.2643 24.9946 10.8226 25.5358 10.8226H29.4642C30.0054 10.8226 30.4463 11.2643 30.4463 11.8065V12.7903H24.5537ZM21.6073 30.7912L23.2239 30.56L24.8591 32.1982L21.6073 33.8275V30.7912ZM15.911 32.1195C16.6545 31.6728 17.4667 31.3835 18.3261 31.2605L19.6431 31.0716V37.0113L26.3244 33.6651L26.5179 33.8589V39.3548H28.4821V33.8589L28.6756 33.6651L35.3569 37.0113V31.0716L36.6739 31.2605C37.5333 31.3835 38.3455 31.6728 39.0889 32.1195C39.6036 32.4294 40.0602 32.8091 40.4659 33.2411C39.8599 34.2397 39.4612 35.3672 39.3374 36.5518L27.5 41.9414L15.6626 36.5508C15.5378 35.3662 15.1401 34.2387 14.5341 33.2401C14.9397 32.8091 15.3964 32.4294 15.911 32.1195ZM5.096 58.8453C4.82985 58.9693 4.54504 59.0323 4.2504 59.0323H3.9705C2.86464 59.0323 1.96502 58.131 1.96502 57.0232C1.96502 56.2381 2.42662 55.5198 3.14061 55.1952L20.4739 47.3025L25.1714 49.4917L5.096 58.8453ZM51.0295 59.0323H50.7486C50.454 59.0323 50.1701 58.9693 49.903 58.8453L12.2713 41.3098L11.7891 41.7407C9.85435 43.4694 6.93747 43.7813 4.6953 42.5022C3.28793 41.6984 2.36474 40.3299 2.06815 38.6858L6.5731 41.2576L10.5752 34.404L6.08303 31.84C7.67504 31.2723 9.33677 31.3806 10.7461 32.1854C12.5414 33.2106 13.6895 35.1429 13.7416 37.2297L13.7573 37.8456L51.8594 55.1952C52.5734 55.5198 53.035 56.2381 53.035 57.0232C53.035 58.131 52.1353 59.0323 51.0295 59.0323Z" fill="#FF4747"/>
<path d="M52.0531 56.0807H50.0889V58.0484H52.0531V56.0807Z" fill="#FF4747"/>
<path d="M4.9115 56.0807H2.94727V58.0484H4.9115V56.0807Z" fill="#FF4747"/>
</svg>
