<svg width="55" height="59" viewBox="0 0 55 59" fill="none" xmlns="http://www.w3.org/2000/svg">
<path d="M51.6388 28.479C47.9307 28.479 44.4888 26.5083 42.4316 23.2057L41.6935 22.0209L40.9555 23.2057C38.8983 26.5083 35.4564 28.479 31.7483 28.479H28.3871V43.702C28.3871 47.3815 29.9351 50.8398 32.5219 53.1609H14.1935V49.3636H25.7258V32.2762H7.09677V39.8706H1.77419V1.8986H40.8064V18.986H42.5806V0H0V41.213L12.9392 55.0595H35.2488L41.6935 59L49.1895 54.4168C52.7734 52.2258 55 48.1191 55 43.702V28.479H51.6388ZM12.4194 51.8185L3.02855 41.7692H12.4194V51.8185ZM8.87097 39.8706V34.1748H23.9516V47.465H14.1935V39.8706H8.87097ZM53.2258 43.702C53.2258 47.4404 51.3416 50.9139 48.3095 52.7688L41.6935 56.8147L35.0776 52.7688C32.0455 50.9139 30.1613 47.4404 30.1613 43.702V30.3776H31.7483C35.6338 30.3776 39.2673 28.5123 41.6935 25.3292C44.1198 28.5123 47.7533 30.3776 51.6388 30.3776H53.2258V43.702Z" fill="#FF4747"/>
<path d="M49.6776 37.972V43.702C49.6776 46.081 48.4783 48.2919 46.5488 49.4719L47.4288 51.1199C49.91 49.6029 51.4518 46.7607 51.4518 43.702V37.972H49.6776Z" fill="#FF4747"/>
<path d="M5.32227 3.79724V9.49305H37.2577V3.79724H5.32227ZM35.4836 7.59444H7.09646V5.69584H35.4836V7.59444Z" fill="#FF4747"/>
<path d="M49.0508 32.5544L37.2586 45.1735L34.3374 42.0474L33.083 43.3898L37.2586 47.8581L50.3051 33.8968L49.0508 32.5544Z" fill="#FF4747"/>
<path d="M22.1778 36.0735H10.6455V37.9721H22.1778V36.0735Z" fill="#FF4747"/>
<path d="M22.1775 39.8706H15.9678V41.7692H22.1775V39.8706Z" fill="#FF4747"/>
<path d="M22.1775 43.6678H15.9678V45.5664H22.1775V43.6678Z" fill="#FF4747"/>
<path d="M33.7094 13.2902H5.32227V15.1888H33.7094V13.2902Z" fill="#FF4747"/>
<path d="M33.7094 17.0874H5.32227V18.986H33.7094V17.0874Z" fill="#FF4747"/>
<path d="M33.7094 20.8846H5.32227V22.7832H33.7094V20.8846Z" fill="#FF4747"/>
<path d="M22.1771 24.6818H5.32227V26.5804H22.1771V24.6818Z" fill="#FF4747"/>
<path d="M22.1771 28.479H5.32227V30.3776H22.1771V28.479Z" fill="#FF4747"/>
<path d="M37.2586 13.2902H35.4844V15.1888H37.2586V13.2902Z" fill="#FF4747"/>
<path d="M37.2586 17.0874H35.4844V18.986H37.2586V17.0874Z" fill="#FF4747"/>
<path d="M37.2586 20.8846H35.4844V22.7832H37.2586V20.8846Z" fill="#FF4747"/>
<path d="M25.7263 24.6818H23.9521V26.5804H25.7263V24.6818Z" fill="#FF4747"/>
<path d="M25.7263 28.479H23.9521V30.3776H25.7263V28.479Z" fill="#FF4747"/>
</svg>
