<svg width="59" height="59" viewBox="0 0 59 59" fill="none" xmlns="http://www.w3.org/2000/svg">
<path d="M54.2421 17.129H37.113V13.3226H39.9679V5.70968H38.0646V2.85484C38.0646 1.28087 36.7838 0 35.2098 0H31.4034C29.8294 0 28.5485 1.28087 28.5485 2.85484V5.70968H19.0324V13.3226H21.8872V17.129H12.3711V22.8387H18.4443L20.9356 27.8214V42.8226C20.9356 44.0616 21.734 45.1084 22.8388 45.5023V48.5323C22.8388 50.1062 24.1197 51.3871 25.6937 51.3871H25.805L26.7566 59H32.2436L33.1952 51.3871H33.3066C34.8805 51.3871 36.1614 50.1062 36.1614 48.5323V45.5023C37.2662 45.1084 38.0646 44.0616 38.0646 42.8226V28.5484V27.5968V26.4472L54.2421 22.6408V17.129ZM30.4517 2.85484C30.4517 2.3305 30.879 1.90323 31.4034 1.90323H35.2098C35.7341 1.90323 36.1614 2.3305 36.1614 2.85484V5.70968H30.4517V2.85484ZM20.9356 11.4194V7.6129H38.0646V11.4194H27.5969V13.3226H35.2098V17.129H23.7904V13.3226H25.6937V11.4194H20.9356ZM30.5631 57.0968H28.4372L27.7235 51.3871H31.2777L30.5631 57.0968ZM36.1614 42.8226C36.1614 43.3469 35.7341 43.7742 35.2098 43.7742H28.5485V45.6774H34.2582V48.5323C34.2582 49.0566 33.8309 49.4839 33.3066 49.4839H25.6937C25.1693 49.4839 24.7421 49.0566 24.7421 48.5323V45.6774H26.6453V43.7742H23.7904C23.2661 43.7742 22.8388 43.3469 22.8388 42.8226V28.5484H24.7421H34.2582H36.1614V42.8226ZM26.6453 26.6452V24.7419H32.355V26.6452H26.6453ZM46.6292 22.4771L36.1614 24.9399V26.6452H34.2582V22.8387H24.7421V26.6452H22.4753L19.6205 20.9355H14.2743V19.0323H46.6292V22.4771ZM52.3388 21.1334L48.5324 22.0289V19.0323H52.3388V21.1334Z" fill="#FF4747"/>
<path d="M11.4194 26.6452H8.56452V22.8387H6.66129V26.6452H3.80645V32.3549H0V39.9678H1.90323V40.9194C1.90323 42.1584 2.70163 43.2052 3.80645 43.5991V55.4819L6.15218 59H9.07363L11.4194 55.4819V43.5991C12.5242 43.2052 13.3226 42.1584 13.3226 40.9194V39.9678H15.2258V32.3549H11.4194V26.6452ZM5.70968 28.5484H9.51613V32.3549H5.70968V28.5484ZM9.51613 54.9052L8.0554 57.0968H7.1704L5.70968 54.9052V43.7742H9.51613V54.9052ZM13.3226 34.2581V38.0646H7.6129V39.9678H11.4194V40.9194C11.4194 41.4437 10.9921 41.871 10.4677 41.871H4.75806C4.23373 41.871 3.80645 41.4437 3.80645 40.9194V39.9678H5.70968V38.0646H1.90323V34.2581H13.3226Z" fill="#FF4747"/>
<path d="M55.1938 36.1613V30.4516H52.3389V26.6451H50.4357V30.4516H47.5809V36.1613H43.7744V43.7742H45.6776V44.7258C45.6776 45.9648 46.476 47.0116 47.5809 47.4055V54.4665L49.8476 59H52.927L55.1938 54.4665V47.4055C56.2986 47.0116 57.097 45.9648 57.097 44.7258V43.7742H59.0002V36.1613H55.1938ZM49.4841 32.3548H53.2905V36.1613H49.4841V32.3548ZM53.2905 54.0173L51.7508 57.0968H51.0238L49.4841 54.0173V47.5806H53.2905V54.0173ZM57.097 41.8709H51.3873V43.7742H55.1938V44.7258C55.1938 45.2501 54.7665 45.6774 54.2422 45.6774H48.5325C48.0081 45.6774 47.5809 45.2501 47.5809 44.7258V43.7742H49.4841V41.8709H45.6776V38.0645H57.097V41.8709Z" fill="#FF4747"/>
</svg>
