<svg width="59" height="56" viewBox="0 0 59 56" fill="none" xmlns="http://www.w3.org/2000/svg">
<path d="M55.43 23.2521H43.742C43.1489 23.2521 42.6696 23.7243 42.6696 24.3085C42.6696 24.8926 43.1489 25.3648 43.742 25.3648H53.5029L56.6118 53.8872H2.43219L6.08156 25.3648H15.8597C16.4527 25.3648 16.9321 24.8926 16.9321 24.3085C16.9321 23.7243 16.4527 23.2521 15.8597 23.2521H4.18985L0 56H59L55.43 23.2521Z" fill="#FF4747"/>
<path d="M28.5839 40.1067C28.4262 40.1986 28.2579 40.2799 28.1067 40.3761C27.8707 40.5261 27.6402 40.6835 27.4139 40.8462C26.9367 41.1916 26.8337 41.8529 27.1833 42.323C27.3935 42.605 27.7195 42.754 28.0498 42.754C28.2697 42.754 28.4916 42.6874 28.6836 42.5501C28.8745 42.4117 29.0686 42.2786 29.2713 42.1497C29.6155 41.93 29.9812 41.724 30.3587 41.536C30.8606 41.2856 31.0643 40.7004 30.8541 40.1954C30.8627 40.187 30.8734 40.1806 30.8809 40.1722C32.8209 38.1482 39.3582 30.5633 42.065 17.9268C42.614 15.3641 42.7374 12.9048 42.4317 10.6177C41.5095 3.67199 37.1287 0 29.7635 0C22.4004 0 18.0197 3.67199 17.0953 10.6177C16.7907 12.9058 16.9141 15.3651 17.4631 17.9268C20.143 30.4408 26.5774 37.996 28.5839 40.1067ZM19.2219 10.8934C20.0079 4.98614 23.4568 2.11383 29.7646 2.11383C36.0735 2.11383 39.5212 4.98614 40.3062 10.8934C40.5797 12.9428 40.465 15.1644 39.9674 17.4927C37.5341 28.852 31.7324 36.0597 29.7646 38.2464C27.7946 36.0576 21.994 28.8467 19.5618 17.4927C19.0631 15.1644 18.9495 12.9439 19.2219 10.8934Z" fill="#FF4747"/>
<path d="M29.7645 19.99C34.1088 19.99 37.6424 16.5092 37.6424 12.2298C37.6424 7.95039 34.1088 4.4696 29.7645 4.4696C25.4203 4.4696 21.8867 7.95039 21.8867 12.2298C21.8867 16.5092 25.4203 19.99 29.7645 19.99ZM29.7645 6.58343C32.9249 6.58343 35.4976 9.11664 35.4976 12.2309C35.4976 15.3451 32.926 17.8783 29.7645 17.8783C26.6031 17.8783 24.0315 15.3451 24.0315 12.2309C24.0315 9.11664 26.6042 6.58343 29.7645 6.58343Z" fill="#FF4747"/>
<path d="M33.7039 38.2073C33.1248 38.3277 32.7559 38.8897 32.8792 39.4612C32.9865 39.9577 33.4315 40.2968 33.927 40.2968C34.001 40.2968 34.0771 40.2894 34.1522 40.2736C34.7806 40.1426 35.4616 40.0316 36.1747 39.9429C36.7624 39.8721 37.1806 39.3439 37.1066 38.765C37.0337 38.1851 36.5028 37.7668 35.9109 37.847C35.1355 37.9411 34.3924 38.0625 33.7039 38.2073Z" fill="#FF4747"/>
<path d="M39.2491 38.6363C39.2727 39.2036 39.7488 39.6472 40.3193 39.6472C40.3354 39.6472 40.3504 39.6472 40.3665 39.6462L42.5124 39.5585C43.1033 39.5321 43.5623 39.0377 43.5344 38.4556C43.5076 37.8715 42.9563 37.4162 42.4148 37.4478L40.2743 37.5355C39.6823 37.5598 39.2233 38.0521 39.2491 38.6363Z" fill="#FF4747"/>
<path d="M24.0569 43.4967C23.5057 43.9065 22.9362 44.3006 22.3625 44.6661C21.866 44.984 21.7244 45.6379 22.0472 46.1281C22.252 46.4397 22.5974 46.6088 22.948 46.6088C23.1486 46.6088 23.3502 46.5538 23.5314 46.4387C24.1459 46.0457 24.7582 45.6232 25.3491 45.1837C25.821 44.8319 25.9153 44.1696 25.5593 43.7037C25.2022 43.2421 24.532 43.1449 24.0569 43.4967Z" fill="#FF4747"/>
<path d="M47.9574 36.5309C47.5949 36.7812 47.1241 36.9629 46.5139 37.0865C45.9338 37.2038 45.5606 37.7637 45.6807 38.3352C45.7858 38.8348 46.2319 39.1782 46.7306 39.1782C46.8024 39.1782 46.8753 39.1708 46.9483 39.156C47.8512 38.9722 48.5847 38.6785 49.196 38.2549L49.3397 38.1513C49.8116 37.7985 49.9049 37.1362 49.5477 36.6714C49.1896 36.2065 48.5182 36.1157 48.0453 36.4664L47.9574 36.5309Z" fill="#FF4747"/>
<path d="M9.50123 44.7906C9.65673 44.2276 9.31785 43.6476 8.74627 43.4955C8.17897 43.3381 7.58593 43.674 7.43151 44.2392C7.29639 44.7293 7.21596 45.2301 7.19022 45.7234C7.18486 45.8449 7.18164 45.9674 7.18164 46.0963C7.18271 46.3034 7.19236 46.5104 7.21274 46.7164C7.26958 47.2604 7.735 47.665 8.2787 47.665C8.31409 47.665 8.35055 47.6629 8.38916 47.6598C8.9779 47.5995 9.40686 47.0819 9.34788 46.5009C9.33287 46.3625 9.3275 46.222 9.32643 46.0889C9.32643 46.0012 9.32965 45.9135 9.33394 45.8269C9.3511 45.4847 9.40686 45.135 9.50123 44.7906Z" fill="#FF4747"/>
<path d="M47.9335 28.3195C47.082 28.2075 46.2134 28.2762 45.3748 28.5107C44.8043 28.6681 44.4729 29.2523 44.6348 29.8132C44.7678 30.2791 45.1978 30.5833 45.6654 30.5833C45.763 30.5833 45.8606 30.5706 45.9571 30.5432C46.5147 30.3889 47.0885 30.3403 47.6461 30.4143C48.2488 30.4882 48.7743 30.0858 48.8525 29.509C48.9319 28.929 48.5201 28.3976 47.9335 28.3195Z" fill="#FF4747"/>
<path d="M50.0681 33.5529C49.8933 34.1096 50.2108 34.7022 50.7759 34.8734C50.8821 34.9061 50.9872 34.9209 51.0923 34.9209C51.5513 34.9209 51.9749 34.6304 52.1164 34.1761C52.2226 33.8402 52.288 33.499 52.3127 33.1588C52.318 33.0712 52.3213 32.9824 52.3213 32.8948C52.3213 32.4004 52.229 31.9049 52.0478 31.4243C51.8419 30.876 51.221 30.5992 50.6698 30.801C50.1132 31.0038 49.8311 31.6123 50.037 32.1585C50.1293 32.4035 50.1765 32.6518 50.1765 32.8937L50.1732 33.0173C50.1604 33.1927 50.1261 33.368 50.0681 33.5529Z" fill="#FF4747"/>
<path d="M18.7464 46.6521C18.118 46.9426 17.4778 47.212 16.844 47.4539C16.2917 47.6631 16.0172 48.2747 16.2306 48.8198C16.3947 49.2381 16.8 49.4959 17.2311 49.4959C17.3598 49.4959 17.4906 49.4737 17.6172 49.4251C18.2982 49.1663 18.9845 48.8768 19.658 48.5663C20.1941 48.3191 20.4247 47.6895 20.1727 47.1613C19.9228 46.632 19.2858 46.4028 18.7464 46.6521Z" fill="#FF4747"/>
<path d="M10.9393 42.2543C11.112 42.2543 11.2878 42.2131 11.4519 42.1254C11.7608 41.9595 12.09 41.856 12.4289 41.8201C12.5736 41.8032 12.7216 41.8032 12.8643 41.8222C13.468 41.8993 13.9903 41.4915 14.0675 40.9137C14.1447 40.3348 13.7318 39.8045 13.1452 39.7284C12.8257 39.6872 12.5007 39.6851 12.1897 39.72C11.5742 39.7865 10.9801 39.9725 10.4246 40.2704C9.90445 40.5503 9.7125 41.1905 9.99668 41.7028C10.1919 42.0557 10.5597 42.2543 10.9393 42.2543Z" fill="#FF4747"/>
<path d="M10.7169 50.5374C10.9486 50.5965 11.1845 50.6409 11.4183 50.6683C11.6928 50.7011 11.9674 50.718 12.243 50.718C12.5786 50.718 12.9153 50.6948 13.251 50.6525C13.8387 50.5796 14.2558 50.0514 14.1808 49.4725C14.1057 48.8936 13.5727 48.4859 12.9829 48.5566C12.5497 48.6116 12.1121 48.6242 11.6789 48.5725C11.5373 48.5545 11.3958 48.5281 11.2564 48.4932C10.6826 48.3422 10.0982 48.6845 9.94803 49.2496C9.80111 49.8148 10.1443 50.3916 10.7169 50.5374Z" fill="#FF4747"/>
</svg>
