<svg width="52" height="61" viewBox="0 0 52 61" fill="none" xmlns="http://www.w3.org/2000/svg">
<path d="M50.0629 35.5833H42.9229V1.01667C42.9229 0.455212 42.4662 0 41.9029 0H9.26308C8.69979 0 8.24309 0.455212 8.24309 1.01667V35.5833H1.10312C0.825048 35.5833 0.558957 35.6964 0.36656 35.8966C-0.0232053 36.302 -0.00943521 36.9455 0.397288 37.334L24.8772 60.7174C25.0671 60.8987 25.32 61 25.583 61C25.846 61 26.099 60.8987 26.2888 60.7174L50.7687 37.334C50.9695 37.1423 51.083 36.877 51.083 36.5999C51.0829 36.0384 50.6262 35.5833 50.0629 35.5833ZM25.583 58.5753L3.64087 37.6167H9.26308C9.82638 37.6167 10.2831 37.1615 10.2831 36.6V2.03333H40.8829V36.6C40.8829 37.1615 41.3396 37.6167 41.9029 37.6167H47.5251L25.583 58.5753Z" fill="#FF4747"/>
<path d="M14.3165 4.06665H12.2832V6.09998H14.3165V4.06665Z" fill="#FF4747"/>
<path d="M18.3829 4.06665H16.3496V6.09998H18.3829V4.06665Z" fill="#FF4747"/>
<path d="M22.4494 4.06665H20.416V6.09998H22.4494V4.06665Z" fill="#FF4747"/>
<path d="M26.5167 4.06665H24.4834V6.09998H26.5167V4.06665Z" fill="#FF4747"/>
<path d="M30.5831 4.06665H28.5498V6.09998H30.5831V4.06665Z" fill="#FF4747"/>
<path d="M34.6495 4.06665H32.6162V6.09998H34.6495V4.06665Z" fill="#FF4747"/>
<path d="M38.7169 4.06665H36.6836V6.09998H38.7169V4.06665Z" fill="#FF4747"/>
<path d="M26.6825 25.2233C30.166 25.2233 33 22.2571 33 18.611C33 14.9656 30.166 12 26.6825 12H20.5806V27.4052H19V29.0415H20.5806V36H22.2157V29.0415H27.7726V27.4052H22.2157V25.2233H26.6825ZM22.2157 13.6364H26.6825C29.2644 13.6364 31.3649 15.8679 31.3649 18.611C31.3649 21.3548 29.2644 23.587 26.6825 23.587H22.2157V13.6364Z" fill="#FF4747"/>
</svg>
