<svg width="59" height="59" viewBox="0 0 59 59" fill="none" xmlns="http://www.w3.org/2000/svg">
<path d="M12.9358 17.987C12.9357 17.987 12.9355 17.987 12.9353 17.987C11.3733 17.886 10.0204 19.0597 9.8998 20.6204C9.78893 22.1863 10.9682 23.5457 12.5341 23.6569C12.601 23.6569 12.6698 23.6638 12.7367 23.6638C14.2262 23.6605 15.4612 22.5091 15.5687 21.0236C15.6802 19.458 14.5014 18.0985 12.9358 17.987ZM13.605 20.881C13.5694 21.3626 13.1516 21.7249 12.6698 21.6922C12.1878 21.6582 11.8244 21.2401 11.8576 20.7581C11.893 20.3003 12.2747 19.9469 12.7338 19.9468C12.7542 19.9468 12.7731 19.9468 12.7937 19.9468C13.2757 19.9808 13.6388 20.399 13.605 20.881Z" fill="#FF4747"/>
<path d="M58.0167 21.6333C58.5597 21.6333 59 21.193 59 20.65V12.2337C58.9979 10.9658 58.1859 9.84108 56.9832 9.44001L52.6378 7.98664L45.7339 1.36782C44.8197 0.488354 43.6 -0.00196077 42.3315 5.89346e-06H23.129C21.925 -0.000485773 20.7627 0.441522 19.8633 1.24196L12.3428 7.92862L4.11034 9.30529C1.73731 9.69272 -0.00392668 11.7448 6.65042e-06 14.1492V20.65C6.65042e-06 21.193 0.440294 21.6333 0.98334 21.6333H5.97867C6.19304 23.1286 6.89514 24.5113 7.97582 25.5667H0.98334C0.440294 25.5667 6.65042e-06 26.007 6.65042e-06 26.55V30.4833C6.65042e-06 31.0264 0.440294 31.4667 0.98334 31.4667H4.65609L23.5843 42.2833L4.65609 53.1H0.98334C0.440294 53.1 6.65042e-06 53.5403 6.65042e-06 54.0833V58.0167C6.65042e-06 58.5597 0.440294 59 0.98334 59H58.0167C58.5597 59 59 58.5597 59 58.0167V54.0833C59 53.5403 58.5597 53.1 58.0167 53.1H54.3439L35.4157 42.2833L54.3439 31.4667H58.0167C58.5597 31.4667 59 31.0264 59 30.4833V26.55C59 26.007 58.5597 25.5667 58.0167 25.5667H52.9909C54.0715 24.5113 54.7736 23.1286 54.988 21.6333H58.0167ZM36.3833 1.96667H42.3315C43.0925 1.96532 43.8243 2.25934 44.3729 2.78677L49.6711 7.86667H36.3833V1.96667ZM21.1682 2.71204C21.7084 2.2318 22.4061 1.96655 23.129 1.96667H34.4167V7.86667H15.3695L21.1682 2.71204ZM41.3787 21.6333C41.593 23.1286 42.2951 24.5113 43.3758 25.5667H17.5909C18.6715 24.5113 19.3736 23.1286 19.588 21.6333H41.3787ZM7.45367 16.3027C7.34256 16.4384 7.23832 16.58 7.13802 16.7236C7.11737 16.754 7.09476 16.7816 7.07411 16.8111C6.95475 16.9881 6.84401 17.1704 6.74174 17.3578C6.71519 17.405 6.69454 17.4561 6.66897 17.5043C6.59621 17.6449 6.52541 17.7865 6.46247 17.9331C6.43101 18.0058 6.40544 18.0806 6.37692 18.1533C6.32677 18.2802 6.27859 18.406 6.23631 18.5358C6.20877 18.6204 6.18714 18.706 6.16256 18.7915C6.12814 18.9154 6.09471 19.0393 6.06422 19.1662C6.04456 19.2566 6.02882 19.3491 6.01211 19.4415C5.99834 19.5162 5.97966 19.59 5.96884 19.6667H1.96667V15.7333H3.93334V13.7667H2.00109C2.16322 12.4791 3.15171 11.451 4.43189 11.2385L12.865 9.83334H34.4167V19.6667H19.5969C19.586 19.591 19.5674 19.5172 19.5536 19.4425C19.5369 19.3491 19.5211 19.2566 19.5005 19.1652C19.473 19.0393 19.4395 18.9154 19.4022 18.7925C19.3776 18.7069 19.3559 18.6204 19.3284 18.5358C19.2861 18.406 19.2379 18.2802 19.1878 18.1533C19.1593 18.0806 19.1337 18.0058 19.1022 17.9331C19.0393 17.7865 18.9685 17.6449 18.8957 17.5043C18.8702 17.4561 18.8495 17.406 18.823 17.3578C18.7207 17.1696 18.61 16.9877 18.4906 16.8121C18.47 16.7796 18.4454 16.7511 18.4228 16.7196C18.3244 16.577 18.2261 16.4374 18.111 16.3027C18.0658 16.2466 18.0127 16.1945 17.9675 16.1395C17.876 16.0342 17.7846 15.93 17.6872 15.8317C17.6292 15.7727 17.5682 15.7176 17.5083 15.6606C17.4148 15.5721 17.3204 15.4836 17.2221 15.4C17.1552 15.3439 17.0874 15.2908 17.0186 15.2377C16.9202 15.1601 16.8219 15.0853 16.7236 15.0135C16.6498 14.9614 16.5751 14.9152 16.4994 14.8641C16.3961 14.7972 16.2919 14.7333 16.1847 14.6674C16.105 14.6222 16.0254 14.5789 15.9448 14.5366C15.8356 14.4796 15.7235 14.4265 15.6114 14.3754C15.5278 14.338 15.4452 14.3006 15.3607 14.2662C15.2436 14.219 15.1247 14.1767 15.0047 14.1364C14.9201 14.1069 14.8365 14.0764 14.75 14.0509C14.6232 14.0135 14.4943 13.983 14.3655 13.9525C14.2819 13.9329 14.1993 13.9112 14.1148 13.8945C13.9702 13.866 13.8198 13.8463 13.6762 13.8267C13.6034 13.8178 13.5326 13.804 13.4589 13.7972C13.2357 13.7795 13.0105 13.7667 12.7833 13.7667C12.5562 13.7667 12.331 13.7795 12.1098 13.8011C12.036 13.808 11.9652 13.8217 11.8924 13.8306C11.7449 13.8503 11.5974 13.8699 11.4539 13.8984C11.3693 13.9152 11.2867 13.9368 11.2041 13.9565C11.0743 13.9869 10.9455 14.0184 10.8186 14.0548C10.7321 14.0804 10.6485 14.1108 10.564 14.1403C10.444 14.1807 10.325 14.2229 10.208 14.2701C10.1234 14.3046 10.0408 14.3419 9.95724 14.3793C9.84514 14.4304 9.73304 14.4835 9.62389 14.5406C9.54325 14.5828 9.46361 14.6261 9.38396 14.6713C9.27677 14.7323 9.17254 14.7962 9.06831 14.868C8.99357 14.9162 8.91884 14.9663 8.84509 15.0165C8.74676 15.0883 8.64351 15.164 8.55009 15.2417C8.48126 15.2948 8.41341 15.3479 8.34654 15.4039C8.24821 15.4875 8.14987 15.576 8.06039 15.6645C8.00041 15.7215 7.93944 15.7766 7.88142 15.8356C7.78309 15.9339 7.69262 16.0382 7.60117 16.1434C7.54906 16.1945 7.49792 16.2466 7.45269 16.3027H7.45367ZM7.86667 20.65C7.86667 17.9347 10.068 15.7333 12.7833 15.7333C15.4987 15.7333 17.7 17.9347 17.7 20.65C17.7 23.3654 15.4987 25.5667 12.7833 25.5667C10.0693 25.5635 7.86987 23.364 7.86667 20.65ZM24.84 43.8311C24.84 43.8449 24.8528 43.8577 24.8577 43.8714C24.9526 44.1396 25.0703 44.3992 25.2097 44.6473C25.2343 44.6925 25.2599 44.7358 25.2864 44.78C25.4321 45.0257 25.599 45.2584 25.785 45.4752C25.7938 45.4851 25.7997 45.4979 25.8086 45.5077L12.5218 53.1H8.61991L24.84 43.8311ZM27.5471 46.7811C28.7916 47.3293 30.2094 47.3293 31.4539 46.7811L42.5134 53.1H16.4856L27.5471 46.7811ZM57.0333 55.0667V57.0333H1.96667V55.0667H57.0333ZM50.3801 53.1H46.4782L31.9692 44.8095C31.6638 44.6357 31.2891 44.6379 30.9858 44.8154C30.075 45.3699 28.9309 45.3699 28.0201 44.8154C27.1119 44.2957 26.551 43.3298 26.55 42.2833C26.55 42.1967 26.5385 42.1103 26.5156 42.0267C26.5097 42.0041 26.4969 41.9834 26.489 41.9618C26.4706 41.9025 26.4466 41.8453 26.4173 41.7907C26.4035 41.7661 26.3819 41.7464 26.3661 41.7228C26.3356 41.6754 26.3011 41.6306 26.2629 41.5891C26.2346 41.5649 26.2051 41.5423 26.1744 41.5213C26.1387 41.4888 26.1006 41.4592 26.0603 41.4328L8.61991 31.4667H12.5218L27.0309 39.7572C27.3362 39.931 27.711 39.9287 28.0142 39.7513C28.925 39.1968 30.0691 39.1968 30.9799 39.7513C31.8882 40.2709 32.449 41.2369 32.45 42.2833C32.45 42.37 32.4616 42.4564 32.4844 42.54C32.4903 42.5626 32.5031 42.5833 32.511 42.6049C32.5294 42.6641 32.5534 42.7214 32.5828 42.776C32.5965 42.8006 32.6182 42.8202 32.6339 42.8438C32.6644 42.8913 32.6989 42.936 32.7371 42.9776C32.7654 43.0018 32.7949 43.0245 32.8256 43.0454C32.8613 43.0779 32.8994 43.1075 32.9397 43.1339L50.3801 53.1ZM16.4866 31.4667H42.5144L31.4529 37.7875C30.2085 37.2383 28.7905 37.2383 27.5461 37.7875L16.4866 31.4667ZM34.16 40.7356C34.16 40.7218 34.1472 40.709 34.1423 40.6953C34.0474 40.427 33.9297 40.1674 33.7903 39.9194C33.7657 39.8742 33.7401 39.8309 33.7136 39.7867C33.5679 39.5409 33.401 39.3083 33.215 39.0914C33.2062 39.0816 33.2003 39.0688 33.1914 39.059L46.4782 31.4667H50.3801L34.16 40.7356ZM57.0333 27.5333V29.5H1.96667V27.5333H57.0333ZM48.1833 25.5667C45.468 25.5667 43.2667 23.3654 43.2667 20.65C43.2667 17.9347 45.468 15.7333 48.1833 15.7333C50.8987 15.7333 53.1 17.9347 53.1 20.65C53.0968 23.364 50.8975 25.5635 48.1833 25.5667ZM54.9005 19.1652C54.873 19.0393 54.8395 18.9154 54.8022 18.7925C54.7776 18.7069 54.7559 18.6204 54.7284 18.5358C54.6861 18.406 54.6379 18.2802 54.5878 18.1533C54.5593 18.0806 54.5337 18.0058 54.5022 17.9331C54.4393 17.7865 54.3685 17.6449 54.2957 17.5043C54.2702 17.4561 54.2495 17.406 54.223 17.3578C54.1207 17.1696 54.01 16.9877 53.8906 16.8121C53.87 16.7796 53.8454 16.7511 53.8228 16.7196C53.7244 16.577 53.6261 16.4374 53.511 16.3027C53.4658 16.2466 53.4127 16.1945 53.3675 16.1395C53.276 16.0342 53.1846 15.93 53.0872 15.8317C53.0292 15.7727 52.9682 15.7176 52.9083 15.6606C52.8148 15.5721 52.7204 15.4836 52.6221 15.4C52.5552 15.3439 52.4874 15.2908 52.4186 15.2377C52.3202 15.1601 52.2219 15.0853 52.1236 15.0135C52.0498 14.9614 51.9751 14.9152 51.8994 14.8641C51.7961 14.7972 51.6919 14.7333 51.5847 14.6674C51.505 14.6222 51.4254 14.5789 51.3448 14.5366C51.2356 14.4796 51.1235 14.4265 51.0114 14.3754C50.9278 14.338 50.8452 14.3006 50.7607 14.2662C50.6436 14.219 50.5247 14.1767 50.4047 14.1364C50.3201 14.1069 50.2365 14.0764 50.15 14.0509C50.0232 14.0135 49.8943 13.983 49.7655 13.9525C49.6819 13.9329 49.5993 13.9112 49.5148 13.8945C49.3702 13.866 49.2198 13.8463 49.0762 13.8267C49.0034 13.8178 48.9326 13.804 48.8589 13.7972C48.6357 13.7795 48.4105 13.7667 48.1833 13.7667C47.9562 13.7667 47.731 13.7795 47.5098 13.8011C47.436 13.808 47.3652 13.8217 47.2924 13.8306C47.1449 13.8503 46.9974 13.8699 46.8539 13.8984C46.7693 13.9152 46.6867 13.9368 46.6041 13.9565C46.4743 13.9869 46.3455 14.0184 46.2186 14.0548C46.1321 14.0804 46.0485 14.1108 45.964 14.1403C45.844 14.1807 45.725 14.2229 45.608 14.2701C45.5234 14.3046 45.4408 14.3419 45.3572 14.3793C45.2451 14.4304 45.133 14.4835 45.0239 14.5406C44.9433 14.5828 44.8636 14.6261 44.784 14.6713C44.6768 14.7323 44.5725 14.7962 44.4683 14.868C44.3936 14.9162 44.3188 14.9663 44.2451 15.0165C44.1468 15.0883 44.0484 15.164 43.9501 15.2417C43.8813 15.2948 43.8134 15.3479 43.7465 15.4039C43.6482 15.4875 43.5499 15.576 43.4604 15.6645C43.4004 15.7215 43.3394 15.7766 43.2814 15.8356C43.1831 15.9339 43.0926 16.0382 43.0012 16.1434C42.954 16.1985 42.9028 16.2506 42.8576 16.3066C42.7465 16.4423 42.6423 16.5839 42.542 16.7275C42.5213 16.758 42.4987 16.7855 42.478 16.815C42.3594 16.992 42.2486 17.1743 42.1457 17.3617C42.1191 17.4089 42.0985 17.4601 42.0729 17.5083C42.0001 17.6489 41.9293 17.7905 41.8664 17.937C41.8349 18.0098 41.8094 18.0845 41.7809 18.1573C41.7307 18.2841 41.6825 18.41 41.6402 18.5398C41.6127 18.6243 41.5911 18.7099 41.5665 18.7954C41.5321 18.9193 41.4986 19.0432 41.4682 19.1701C41.4485 19.2606 41.4328 19.353 41.416 19.4454C41.4023 19.5202 41.3836 19.5939 41.3728 19.6706H36.3833V9.83334H51.9574L56.3607 11.3015C56.7622 11.4352 57.033 11.8106 57.0333 12.2337V12.7833H55.0667V14.75H57.0333V19.6667H54.9969C54.986 19.591 54.9674 19.5172 54.9536 19.4425C54.9369 19.3491 54.9211 19.2566 54.9005 19.1652Z" fill="#FF4747"/>
<path d="M48.3362 17.9871C48.336 17.9871 48.3359 17.9871 48.3357 17.9871C46.7742 17.8878 45.4222 19.0605 45.3002 20.6204C45.1893 22.1864 46.3686 23.5457 47.9345 23.657C48.0014 23.657 48.0702 23.6639 48.1371 23.6639C49.6266 23.6605 50.8616 22.5092 50.9691 21.0236C51.0805 19.458 49.9017 18.0986 48.3362 17.9871ZM49.0082 20.881C48.9736 21.3635 48.5556 21.7273 48.0731 21.6952C47.591 21.6612 47.2276 21.2431 47.2608 20.7611C47.2948 20.3033 47.6751 19.9487 48.134 19.9469C48.1557 19.9469 48.1753 19.9469 48.197 19.9469C48.6789 19.9809 49.042 20.3991 49.0082 20.881Z" fill="#FF4747"/>
<path d="M32.4508 11.8H26.5508V13.7667H32.4508V11.8Z" fill="#FF4747"/>
<path d="M30.4833 41.3H28.5166V43.2667H30.4833V41.3Z" fill="#FF4747"/>
</svg>
