<svg width="81" height="81" viewBox="0 0 81 81" fill="none" xmlns="http://www.w3.org/2000/svg">
<g clip-path="url(#clip0)">
<path d="M77.7444 46.5195C76.4636 44.7492 75.87 42.5871 75.8724 40.4021C75.8726 40.3894 75.8726 40.3767 75.8726 40.3638C75.8726 20.9036 60.0969 5.12793 40.6367 5.12793C36.3796 5.12793 32.3005 5.88561 28.5232 7.27028C26.4797 8.0193 24.2411 8.16327 22.146 7.57311C20.2954 7.05182 18.3186 6.83195 16.2707 6.97289C7.66803 7.56486 0.742427 14.6151 0.29664 23.2266C0.083814 27.3369 1.31647 31.1499 3.5289 34.208C4.80968 35.9782 5.40326 38.1403 5.40064 40.3254C5.40064 40.338 5.40064 40.3507 5.40064 40.3636C5.40064 59.8238 21.1761 75.5995 40.6365 75.5995C44.8939 75.5995 48.973 74.8418 52.7501 73.4571C54.7936 72.7081 57.0322 72.5642 59.1272 73.1543C60.9778 73.6756 62.9545 73.8955 65.0026 73.7545C73.6052 73.1626 80.5306 66.1125 80.9766 57.5012C81.1895 53.3909 79.9568 49.5777 77.7444 46.5195ZM41.9266 34.0467C49.0314 35.7362 59.7677 38.2893 59.7677 50.1156C59.7677 55.9414 56.8987 60.3856 51.6888 62.6292C47.9711 64.2303 43.7635 64.4464 40.1378 64.4464C28.9959 64.4464 21.9588 55.7827 21.6646 55.4138C19.84 53.1253 20.2155 49.7906 22.5042 47.9659C24.7924 46.1405 28.1271 46.517 29.9521 48.805C29.9685 48.8245 34.1768 53.6577 40.1378 53.8467C47.3159 54.0745 48.9559 51.9388 49.1679 50.1157C49.427 47.8892 47.4464 46.2547 39.4737 44.3588C32.7161 42.7516 22.5026 40.3229 22.5026 29.4314C22.5026 26.0396 23.8821 14.9731 41.6334 14.9731C52.8421 14.9731 59.4582 23.798 59.7345 24.1737C61.4681 26.5321 60.9619 29.8496 58.6035 31.583C56.2554 33.3089 52.9589 32.815 51.2186 30.4852C51.0938 30.3247 47.3066 26.1113 41.6334 25.5727C37.3406 25.165 33.1022 26.7129 33.1022 28.9997C33.1022 31.4225 34.3194 32.2376 41.9266 34.0467Z" fill="#00AAF2"/>
</g>
<defs>
<clipPath id="clip0">
<rect width="80.7273" height="80.7273" fill="white" transform="translate(0.272705)"/>
</clipPath>
</defs>
</svg>
