<svg width="81" height="81" viewBox="0 0 81 81" fill="none" xmlns="http://www.w3.org/2000/svg">
<g clip-path="url(#clip0)">
<path d="M40.5455 80.7273C62.8377 80.7273 80.9092 62.6559 80.9092 40.3636C80.9092 18.0714 62.8377 0 40.5455 0C18.2533 0 0.181885 18.0714 0.181885 40.3636C0.181885 62.6559 18.2533 80.7273 40.5455 80.7273Z" fill="#59AAE7"/>
<path d="M40.5454 0C38.7611 0 37.004 0.117307 35.2807 0.341672C55.0852 2.92163 70.3794 19.8559 70.3794 40.3636C70.3794 60.8714 55.085 77.8056 35.2805 80.3856C37.004 80.61 38.7611 80.7273 40.5454 80.7273C62.8377 80.7273 80.9091 62.6557 80.9091 40.3636C80.9091 18.0716 62.8377 0 40.5454 0Z" fill="#3D9AE3"/>
<path d="M26.1483 49.0574L13.1308 42.5487C12.7739 42.3702 12.7705 41.8623 13.1248 41.6789L62.5798 16.0986C62.9431 15.9107 63.3625 16.2265 63.2824 16.6276L54.7676 59.2013C54.7069 59.5052 54.3819 59.6761 54.097 59.554L42.5251 54.5948C42.3865 54.5354 42.228 54.5434 42.0961 54.6167L27.1428 62.9241C26.8176 63.1046 26.418 62.8697 26.418 62.4976V49.4939C26.4181 49.3089 26.3137 49.1401 26.1483 49.0574Z" fill="#FCFCFC"/>
<path d="M31.765 53.4453L31.6841 40.4489C31.6836 40.3656 31.7267 40.2883 31.7976 40.245L52.9095 27.3479C53.1489 27.2017 53.3992 27.5186 53.2015 27.7176L37.1349 43.8984C37.1172 43.9163 37.1023 43.9368 37.0911 43.9594L34.3429 49.4555L32.2129 53.553C32.0986 53.7729 31.7665 53.693 31.765 53.4453Z" fill="#D8D7DA"/>
</g>
<defs>
<clipPath id="clip0">
<rect width="80.7273" height="80.7273" fill="white" transform="translate(0.181885)"/>
</clipPath>
</defs>
</svg>
