<svg width="81" height="81" viewBox="0 0 81 81" fill="none" xmlns="http://www.w3.org/2000/svg">
<g clip-path="url(#clip0)">
<path d="M40.3636 80.7273C62.6559 80.7273 80.7273 62.6559 80.7273 40.3636C80.7273 18.0714 62.6559 0 40.3636 0C18.0714 0 0 18.0714 0 40.3636C0 62.6559 18.0714 80.7273 40.3636 80.7273Z" fill="#4D76A1"/>
<path fill-rule="evenodd" clip-rule="evenodd" d="M38.8391 58.0665H42.0071C42.0071 58.0665 42.9641 57.9614 43.4526 57.4347C43.9023 56.9512 43.8879 56.0432 43.8879 56.0432C43.8879 56.0432 43.8261 51.7922 45.799 51.1663C47.7439 50.5496 50.2413 55.2747 52.8884 57.0915C54.8901 58.4665 56.4112 58.165 56.4112 58.165L63.4891 58.0665C63.4891 58.0665 67.1918 57.8384 65.4361 54.9272C65.2922 54.689 64.4137 52.7737 60.1736 48.8379C55.7356 44.7186 56.3299 45.3849 61.6759 38.2595C64.9318 33.9201 66.2334 31.2708 65.8268 30.1361C65.439 29.0554 63.0445 29.3411 63.0445 29.3411L55.075 29.3907C55.075 29.3907 54.4843 29.3101 54.0461 29.572C53.618 29.8289 53.3424 30.4275 53.3424 30.4275C53.3424 30.4275 52.0811 33.7855 50.3989 36.6413C46.8502 42.6673 45.4313 42.9853 44.8514 42.6112C43.5023 41.7391 43.839 39.1078 43.839 37.2385C43.839 31.3989 44.7247 28.964 42.1143 28.3337C41.248 28.1244 40.6105 27.9862 38.3951 27.9639C35.5516 27.9344 33.1448 27.9725 31.782 28.6403C30.8754 29.0842 30.1761 30.0735 30.602 30.1304C31.1287 30.2009 32.3217 30.452 32.9541 31.3133C33.7708 32.4242 33.742 34.9195 33.742 34.9195C33.742 34.9195 34.2111 41.7938 32.6462 42.6479C31.5719 43.2336 30.0983 42.0377 26.9346 36.5708C25.3135 33.7704 24.0896 30.6751 24.0896 30.6751C24.0896 30.6751 23.8536 30.0966 23.4327 29.7872C22.9219 29.4123 22.2081 29.2929 22.2081 29.2929L14.6351 29.3425C14.6351 29.3425 13.4983 29.3742 13.081 29.8685C12.7097 30.3081 13.0515 31.2176 13.0515 31.2176C13.0515 31.2176 18.9803 45.0885 25.6934 52.0786C31.8489 58.4874 38.8391 58.0665 38.8391 58.0665Z" fill="white"/>
</g>
<defs>
<clipPath id="clip0">
<rect width="80.7273" height="80.7273" fill="white"/>
</clipPath>
</defs>
</svg>
