<svg width="81" height="81" viewBox="0 0 81 81" fill="none" xmlns="http://www.w3.org/2000/svg">
<g clip-path="url(#clip0)">
<path d="M40.4645 0H40.4444C18.1889 0 0.0908203 18.1031 0.0908203 40.3636C0.0908203 49.1932 2.93646 57.3769 7.77505 64.0218L2.74473 79.0169L18.2595 74.0572C24.642 78.2853 32.2556 80.7273 40.4645 80.7273C62.72 80.7273 80.8181 62.6191 80.8181 40.3636C80.8181 18.1081 62.72 0 40.4645 0Z" fill="#4CAF50"/>
<path d="M63.9511 56.9986C62.9774 59.7484 59.1125 62.0289 56.0298 62.6949C53.9208 63.144 51.1659 63.5022 41.8924 59.6576C30.0305 54.7433 22.3917 42.6897 21.7964 41.9077C21.2262 41.1256 17.0032 35.5252 17.0032 29.733C17.0032 23.9408 19.9447 21.1204 21.1304 19.9095C22.1041 18.9155 23.7136 18.4614 25.2575 18.4614C25.757 18.4614 26.2061 18.4867 26.6097 18.5068C27.7954 18.5573 28.3908 18.6279 29.1728 20.4998C30.1466 22.8459 32.5179 28.6381 32.8005 29.2335C33.0881 29.8288 33.3757 30.6361 32.972 31.4182C32.5936 32.2254 32.2606 32.5837 31.6653 33.2698C31.0699 33.956 30.5048 34.4807 29.9094 35.2174C29.3645 35.8582 28.749 36.5443 29.4352 37.73C30.1214 38.8905 32.4927 42.7603 35.9842 45.8683C40.4898 49.8795 44.1427 51.161 45.4494 51.7059C46.4232 52.1096 47.5837 52.0137 48.2951 51.2569C49.1982 50.2831 50.3133 48.6686 51.4485 47.0792C52.2558 45.939 53.2749 45.7977 54.3446 46.2013C55.4344 46.5797 61.2014 49.4304 62.387 50.0207C63.5727 50.6161 64.3548 50.8987 64.6424 51.3982C64.9249 51.8977 64.9249 54.2438 63.9511 56.9986Z" fill="#FAFAFA"/>
</g>
<defs>
<clipPath id="clip0">
<rect width="80.7273" height="80.7273" fill="white" transform="translate(0.0908203)"/>
</clipPath>
</defs>
</svg>
