<svg width="75" height="75" viewBox="0 0 75 75" fill="none" xmlns="http://www.w3.org/2000/svg">
<g clip-path="url(#clip0)">
<path d="M73.3185 59.2717L61.736 47.6878C59.4289 45.3901 55.6085 45.4599 53.2211 47.8481L47.3857 53.6822C47.017 53.479 46.6354 53.2668 46.2342 53.0416C42.5493 50.9998 37.5058 48.2013 32.1986 42.8902C26.8756 37.5679 24.0745 32.5166 22.0265 28.8293C21.8103 28.4386 21.6033 28.062 21.3988 27.7043L25.3152 23.7938L27.2406 21.8659C29.6317 19.4742 29.6976 15.6548 27.396 13.3504L15.8134 1.76522C13.5117 -0.535991 9.68953 -0.466179 7.29846 1.92553L4.0341 5.20864L4.1233 5.2972C3.02871 6.69387 2.11405 8.30472 1.43338 10.0418C0.805931 11.6954 0.415285 13.2732 0.236661 14.8544C-1.29274 27.5334 4.50123 39.1212 20.2253 54.8455C41.9608 76.5795 59.4768 74.9376 60.2324 74.8575C61.8782 74.6607 63.4554 74.2675 65.0583 73.645C66.7803 72.9723 68.3901 72.0589 69.7859 70.9667L69.8572 71.0301L73.1643 67.7918C75.5504 65.4005 75.6191 61.5798 73.3185 59.2717Z" fill="#4A4A4A"/>
</g>
<defs>
<clipPath id="clip0">
<rect width="75" height="75" fill="white"/>
</clipPath>
</defs>
</svg>
