<svg width="75" height="75" viewBox="0 0 75 75" fill="none" xmlns="http://www.w3.org/2000/svg">
<g clip-path="url(#clip0)">
<path d="M60.7239 52.0199C60.4264 52.0199 60.129 51.9111 59.8968 51.691L45.9812 38.6364C45.4951 38.1817 45.4709 37.4151 45.928 36.929C46.3851 36.438 47.1469 36.4163 47.6379 36.8758L61.5534 49.9304C62.0395 50.3851 62.0637 51.1517 61.6066 51.6378C61.3672 51.8917 61.048 52.0199 60.7239 52.0199Z" fill="#4A4A4A"/>
<path d="M14.2734 52.0201C13.9517 52.0201 13.6301 51.8919 13.3907 51.638C12.9336 51.1519 12.9578 50.3852 13.4439 49.9306L27.3643 36.876C27.8528 36.4213 28.6195 36.4406 29.0741 36.9292C29.5312 37.4153 29.507 38.1819 29.0209 38.6366L15.1005 51.6912C14.8683 51.9113 14.5709 52.0201 14.2734 52.0201Z" fill="#4A4A4A"/>
<path d="M68.9539 64.1582H6.04605C2.71347 64.1582 0 61.4472 0 58.1122V16.8854C0 13.5504 2.71347 10.8394 6.04605 10.8394H68.9539C72.2865 10.8394 75 13.5504 75 16.8854V58.1122C75 61.4472 72.2865 64.1582 68.9539 64.1582ZM6.04605 13.2578C4.04601 13.2578 2.41842 14.8854 2.41842 16.8854V58.1122C2.41842 60.1122 4.04601 61.7398 6.04605 61.7398H68.9539C70.954 61.7398 72.5816 60.1122 72.5816 58.1122V16.8854C72.5816 14.8854 70.954 13.2578 68.9539 13.2578H6.04605Z" fill="#4A4A4A"/>
<path d="M37.5 43.5749C35.8917 43.5749 34.2835 43.0404 33.0598 41.9739L2.00726 14.8852C1.50423 14.4474 1.45102 13.6832 1.88876 13.1778C2.33133 12.6747 3.09313 12.6288 3.59616 13.0617L34.6487 40.148C36.194 41.495 38.8059 41.495 40.3489 40.148L71.3627 13.1052C71.8633 12.6675 72.6251 12.7158 73.0701 13.2213C73.5078 13.7267 73.457 14.4885 72.954 14.9287L41.9402 41.9715C40.7141 43.0404 39.1082 43.5749 37.5 43.5749Z" fill="#4A4A4A"/>
</g>
<defs>
<clipPath id="clip0">
<rect width="75" height="75" fill="white"/>
</clipPath>
</defs>
</svg>
